<svg xmlns="http://www.w3.org/2000/svg" viewBox="0 0 841.9 595.3">
  <g fill="#61DAFB">
    <path d="M666.3 296.5c0 32.6-26.5 59.1-59.1 59.1s-59.1-26.5-59.1-59.1 26.5-59.1 59.1-59.1 59.1 26.5 59.1 59.1zM370.5 296.5c0 32.6-26.5 59.1-59.1 59.1s-59.1-26.5-59.1-59.1 26.5-59.1 59.1-59.1 59.1 26.5 59.1 59.1zM74.6 296.5c0 32.6-26.5 59.1-59.1 59.1S-43.6 329 370.5 296.5zM458.2 0c0 79-64.2 143.1-143.1 143.1S171.9 79 171.9 0 236.1-143 314.9-143 458.2-79 458.2 0zM85.9 296.5c0 32.6-26.5 59.1-59.1 59.1S-43.6 329 296.5 296.5zM85.9 148.8C128.7 104.8 233.1 0 370.5 0s241.8 104.8 284.6 148.8c43.7 44 6.2 6.5-58.6 21.5S296.5 74.8 74.6 296.5z"/>
  </g>
</svg>
